<?xml version="1.0" encoding="utf-8" standalone="no"?>
<!DOCTYPE svg PUBLIC "-//W3C//DTD SVG 1.1//EN"
  "http://www.w3.org/Graphics/SVG/1.1/DTD/svg11.dtd">
<svg xmlns:xlink="http://www.w3.org/1999/xlink" width="423.052768pt" height="280.136875pt" viewBox="0 0 423.052768 280.136875" xmlns="http://www.w3.org/2000/svg" version="1.1">
 <metadata>
  <rdf:RDF xmlns:dc="http://purl.org/dc/elements/1.1/" xmlns:cc="http://creativecommons.org/ns#" xmlns:rdf="http://www.w3.org/1999/02/22-rdf-syntax-ns#">
   <cc:Work>
    <dc:type rdf:resource="http://purl.org/dc/dcmitype/StillImage"/>
    <dc:date>2025-07-08T01:13:33.844633</dc:date>
    <dc:format>image/svg+xml</dc:format>
    <dc:creator>
     <cc:Agent>
      <dc:title>Matplotlib v3.10.1, https://matplotlib.org/</dc:title>
     </cc:Agent>
    </dc:creator>
   </cc:Work>
  </rdf:RDF>
 </metadata>
 <defs>
  <style type="text/css">*{stroke-linejoin: round; stroke-linecap: butt}</style>
 </defs>
 <g id="figure_1">
  <g id="patch_1">
   <path d="M 0 280.136875 
L 423.052768 280.136875 
L 423.052768 0 
L 0 0 
L 0 280.136875 
z
" style="fill: none"/>
  </g>
  <g id="axes_1">
   <g id="patch_2">
    <path d="M 49.00875 225.16 
L 413.450983 225.16 
L 413.450983 7.2 
L 49.00875 7.2 
L 49.00875 225.16 
z
" style="fill: none"/>
   </g>
   <g id="PathCollection_1">
    <defs>
     <path id="C0_0_3478d3665a" d="M 0 3.872983 
C 1.027127 3.872983 2.012324 3.464901 2.738613 2.738613 
C 3.464901 2.012324 3.872983 1.027127 3.872983 -0 
C 3.872983 -1.027127 3.464901 -2.012324 2.738613 -2.738613 
C 2.012324 -3.464901 1.027127 -3.872983 0 -3.872983 
C -1.027127 -3.872983 -2.012324 -3.464901 -2.738613 -2.738613 
C -3.464901 -2.012324 -3.872983 -1.027127 -3.872983 0 
C -3.872983 1.027127 -3.464901 2.012324 -2.738613 2.738613 
C -2.012324 3.464901 -1.027127 3.872983 0 3.872983 
z
"/>
    </defs>
    <g clip-path="url(#pe7c464be27)">
     <use xlink:href="#C0_0_3478d3665a" x="367.536547" y="61.913372" style="fill: #440154; fill-opacity: 0.7; stroke: #808080; stroke-opacity: 0.7; stroke-width: 1.4"/>
    </g>
    <g clip-path="url(#pe7c464be27)">
     <use xlink:href="#C0_0_3478d3665a" x="305.758747" y="177.416064" style="fill: #fde725; fill-opacity: 0.7; stroke: #808080; stroke-opacity: 0.7; stroke-width: 1.4"/>
    </g>
    <g clip-path="url(#pe7c464be27)">
     <use xlink:href="#C0_0_3478d3665a" x="351.377861" y="145.327329" style="fill: #440154; fill-opacity: 0.7; stroke: #808080; stroke-opacity: 0.7; stroke-width: 1.4"/>
    </g>
    <g clip-path="url(#pe7c464be27)">
     <use xlink:href="#C0_0_3478d3665a" x="350.263147" y="72.14759" style="fill: #440154; fill-opacity: 0.7; stroke: #808080; stroke-opacity: 0.7; stroke-width: 1.4"/>
    </g>
    <g clip-path="url(#pe7c464be27)">
     <use xlink:href="#C0_0_3478d3665a" x="297.155024" y="149.414728" style="fill: #31688e; fill-opacity: 0.7; stroke: #808080; stroke-opacity: 0.7; stroke-width: 1.4"/>
    </g>
    <g clip-path="url(#pe7c464be27)">
     <use xlink:href="#C0_0_3478d3665a" x="259.946041" y="191.403462" style="fill: #fde725; fill-opacity: 0.7; stroke: #808080; stroke-opacity: 0.7; stroke-width: 1.4"/>
    </g>
    <g clip-path="url(#pe7c464be27)">
     <use xlink:href="#C0_0_3478d3665a" x="341.54609" y="72.373453" style="fill: #440154; fill-opacity: 0.7; stroke: #808080; stroke-opacity: 0.7; stroke-width: 1.4"/>
    </g>
    <g clip-path="url(#pe7c464be27)">
     <use xlink:href="#C0_0_3478d3665a" x="304.11402" y="128.04878" style="fill: #31688e; fill-opacity: 0.7; stroke: #808080; stroke-opacity: 0.7; stroke-width: 1.4"/>
    </g>
    <g clip-path="url(#pe7c464be27)">
     <use xlink:href="#C0_0_3478d3665a" x="284.899303" y="180.844348" style="fill: #fde725; fill-opacity: 0.7; stroke: #808080; stroke-opacity: 0.7; stroke-width: 1.4"/>
    </g>
    <g clip-path="url(#pe7c464be27)">
     <use xlink:href="#C0_0_3478d3665a" x="242.264206" y="122.289263" style="fill: #31688e; fill-opacity: 0.7; stroke: #808080; stroke-opacity: 0.7; stroke-width: 1.4"/>
    </g>
    <g clip-path="url(#pe7c464be27)">
     <use xlink:href="#C0_0_3478d3665a" x="386.325958" y="140.390601" style="fill: #440154; fill-opacity: 0.7; stroke: #808080; stroke-opacity: 0.7; stroke-width: 1.4"/>
    </g>
    <g clip-path="url(#pe7c464be27)">
     <use xlink:href="#C0_0_3478d3665a" x="343.853546" y="146.829812" style="fill: #440154; fill-opacity: 0.7; stroke: #808080; stroke-opacity: 0.7; stroke-width: 1.4"/>
    </g>
    <g clip-path="url(#pe7c464be27)">
     <use xlink:href="#C0_0_3478d3665a" x="262.019337" y="130.263978" style="fill: #31688e; fill-opacity: 0.7; stroke: #808080; stroke-opacity: 0.7; stroke-width: 1.4"/>
    </g>
    <g clip-path="url(#pe7c464be27)">
     <use xlink:href="#C0_0_3478d3665a" x="164.071332" y="118.403497" style="fill: #31688e; fill-opacity: 0.7; stroke: #808080; stroke-opacity: 0.7; stroke-width: 1.4"/>
    </g>
    <g clip-path="url(#pe7c464be27)">
     <use xlink:href="#C0_0_3478d3665a" x="284.307634" y="119.27461" style="fill: #31688e; fill-opacity: 0.7; stroke: #808080; stroke-opacity: 0.7; stroke-width: 1.4"/>
    </g>
    <g clip-path="url(#pe7c464be27)">
     <use xlink:href="#C0_0_3478d3665a" x="235.757555" y="83.374695" style="fill: #31688e; fill-opacity: 0.7; stroke: #808080; stroke-opacity: 0.7; stroke-width: 1.4"/>
    </g>
    <g clip-path="url(#pe7c464be27)">
     <use xlink:href="#C0_0_3478d3665a" x="163.350446" y="125.616359" style="fill: #31688e; fill-opacity: 0.7; stroke: #808080; stroke-opacity: 0.7; stroke-width: 1.4"/>
    </g>
    <g clip-path="url(#pe7c464be27)">
     <use xlink:href="#C0_0_3478d3665a" x="377.503952" y="133.130706" style="fill: #440154; fill-opacity: 0.7; stroke: #808080; stroke-opacity: 0.7; stroke-width: 1.4"/>
    </g>
    <g clip-path="url(#pe7c464be27)">
     <use xlink:href="#C0_0_3478d3665a" x="313.636856" y="189.243643" style="fill: #35b779; fill-opacity: 0.7; stroke: #808080; stroke-opacity: 0.7; stroke-width: 1.4"/>
    </g>
    <g clip-path="url(#pe7c464be27)">
     <use xlink:href="#C0_0_3478d3665a" x="286.167137" y="164.045758" style="fill: #fde725; fill-opacity: 0.7; stroke: #808080; stroke-opacity: 0.7; stroke-width: 1.4"/>
    </g>
    <g clip-path="url(#pe7c464be27)">
     <use xlink:href="#C0_0_3478d3665a" x="154.312486" y="182.044247" style="fill: #fde725; fill-opacity: 0.7; stroke: #808080; stroke-opacity: 0.7; stroke-width: 1.4"/>
    </g>
    <g clip-path="url(#pe7c464be27)">
     <use xlink:href="#C0_0_3478d3665a" x="289.970636" y="156.846362" style="fill: #31688e; fill-opacity: 0.7; stroke: #808080; stroke-opacity: 0.7; stroke-width: 1.4"/>
    </g>
    <g clip-path="url(#pe7c464be27)">
     <use xlink:href="#C0_0_3478d3665a" x="238.660682" y="143.55517" style="fill: #31688e; fill-opacity: 0.7; stroke: #808080; stroke-opacity: 0.7; stroke-width: 1.4"/>
    </g>
    <g clip-path="url(#pe7c464be27)">
     <use xlink:href="#C0_0_3478d3665a" x="369.235567" y="128.977734" style="fill: #440154; fill-opacity: 0.7; stroke: #808080; stroke-opacity: 0.7; stroke-width: 1.4"/>
    </g>
    <g clip-path="url(#pe7c464be27)">
     <use xlink:href="#C0_0_3478d3665a" x="394.420668" y="195.722832" style="fill: #35b779; fill-opacity: 0.7; stroke: #808080; stroke-opacity: 0.7; stroke-width: 1.4"/>
    </g>
    <g clip-path="url(#pe7c464be27)">
     <use xlink:href="#C0_0_3478d3665a" x="65.574306" y="197.011412" style="fill: #fde725; fill-opacity: 0.7; stroke: #808080; stroke-opacity: 0.7; stroke-width: 1.4"/>
    </g>
    <g clip-path="url(#pe7c464be27)">
     <use xlink:href="#C0_0_3478d3665a" x="226.837106" y="102.421855" style="fill: #31688e; fill-opacity: 0.7; stroke: #808080; stroke-opacity: 0.7; stroke-width: 1.4"/>
    </g>
    <g clip-path="url(#pe7c464be27)">
     <use xlink:href="#C0_0_3478d3665a" x="208.212529" y="185.643945" style="fill: #fde725; fill-opacity: 0.7; stroke: #808080; stroke-opacity: 0.7; stroke-width: 1.4"/>
    </g>
    <g clip-path="url(#pe7c464be27)">
     <use xlink:href="#C0_0_3478d3665a" x="375.417808" y="143.294559" style="fill: #440154; fill-opacity: 0.7; stroke: #808080; stroke-opacity: 0.7; stroke-width: 1.4"/>
    </g>
    <g clip-path="url(#pe7c464be27)">
     <use xlink:href="#C0_0_3478d3665a" x="338.609327" y="153.458412" style="fill: #440154; fill-opacity: 0.7; stroke: #808080; stroke-opacity: 0.7; stroke-width: 1.4"/>
    </g>
    <g clip-path="url(#pe7c464be27)">
     <use xlink:href="#C0_0_3478d3665a" x="138.489928" y="189.757885" style="fill: #fde725; fill-opacity: 0.7; stroke: #808080; stroke-opacity: 0.7; stroke-width: 1.4"/>
    </g>
    <g clip-path="url(#pe7c464be27)">
     <use xlink:href="#C0_0_3478d3665a" x="235.236793" y="203.96968" style="fill: #fde725; fill-opacity: 0.7; stroke: #808080; stroke-opacity: 0.7; stroke-width: 1.4"/>
    </g>
    <g clip-path="url(#pe7c464be27)">
     <use xlink:href="#C0_0_3478d3665a" x="348.231832" y="202.550838" style="fill: #35b779; fill-opacity: 0.7; stroke: #808080; stroke-opacity: 0.7; stroke-width: 1.4"/>
    </g>
    <g clip-path="url(#pe7c464be27)">
     <use xlink:href="#C0_0_3478d3665a" x="385.193207" y="56.112565" style="fill: #440154; fill-opacity: 0.7; stroke: #808080; stroke-opacity: 0.7; stroke-width: 1.4"/>
    </g>
    <g clip-path="url(#pe7c464be27)">
     <use xlink:href="#C0_0_3478d3665a" x="100.081944" y="202.099707" style="fill: #fde725; fill-opacity: 0.7; stroke: #808080; stroke-opacity: 0.7; stroke-width: 1.4"/>
    </g>
    <g clip-path="url(#pe7c464be27)">
     <use xlink:href="#C0_0_3478d3665a" x="327.105879" y="143.55517" style="fill: #440154; fill-opacity: 0.7; stroke: #808080; stroke-opacity: 0.7; stroke-width: 1.4"/>
    </g>
    <g clip-path="url(#pe7c464be27)">
     <use xlink:href="#C0_0_3478d3665a" x="354.872298" y="140.390601" style="fill: #440154; fill-opacity: 0.7; stroke: #808080; stroke-opacity: 0.7; stroke-width: 1.4"/>
    </g>
    <g clip-path="url(#pe7c464be27)">
     <use xlink:href="#C0_0_3478d3665a" x="298.986339" y="129.115357" style="fill: #31688e; fill-opacity: 0.7; stroke: #808080; stroke-opacity: 0.7; stroke-width: 1.4"/>
    </g>
    <g clip-path="url(#pe7c464be27)">
     <use xlink:href="#C0_0_3478d3665a" x="240.018009" y="192.843341" style="fill: #fde725; fill-opacity: 0.7; stroke: #808080; stroke-opacity: 0.7; stroke-width: 1.4"/>
    </g>
    <g clip-path="url(#pe7c464be27)">
     <use xlink:href="#C0_0_3478d3665a" x="327.307435" y="70.699193" style="fill: #440154; fill-opacity: 0.7; stroke: #808080; stroke-opacity: 0.7; stroke-width: 1.4"/>
    </g>
    <g clip-path="url(#pe7c464be27)">
     <use xlink:href="#C0_0_3478d3665a" x="224.40189" y="173.302124" style="fill: #fde725; fill-opacity: 0.7; stroke: #808080; stroke-opacity: 0.7; stroke-width: 1.4"/>
    </g>
    <g clip-path="url(#pe7c464be27)">
     <use xlink:href="#C0_0_3478d3665a" x="375.09146" y="62.87255" style="fill: #440154; fill-opacity: 0.7; stroke: #808080; stroke-opacity: 0.7; stroke-width: 1.4"/>
    </g>
    <g clip-path="url(#pe7c464be27)">
     <use xlink:href="#C0_0_3478d3665a" x="184.639056" y="197.985766" style="fill: #fde725; fill-opacity: 0.7; stroke: #808080; stroke-opacity: 0.7; stroke-width: 1.4"/>
    </g>
    <g clip-path="url(#pe7c464be27)">
     <use xlink:href="#C0_0_3478d3665a" x="278.475615" y="92.051801" style="fill: #31688e; fill-opacity: 0.7; stroke: #808080; stroke-opacity: 0.7; stroke-width: 1.4"/>
    </g>
    <g clip-path="url(#pe7c464be27)">
     <use xlink:href="#C0_0_3478d3665a" x="153.306315" y="121.945039" style="fill: #31688e; fill-opacity: 0.7; stroke: #808080; stroke-opacity: 0.7; stroke-width: 1.4"/>
    </g>
    <g clip-path="url(#pe7c464be27)">
     <use xlink:href="#C0_0_3478d3665a" x="102.669414" y="213.74761" style="fill: #fde725; fill-opacity: 0.7; stroke: #808080; stroke-opacity: 0.7; stroke-width: 1.4"/>
    </g>
    <g clip-path="url(#pe7c464be27)">
     <use xlink:href="#C0_0_3478d3665a" x="287.309918" y="188.568923" style="fill: #fde725; fill-opacity: 0.7; stroke: #808080; stroke-opacity: 0.7; stroke-width: 1.4"/>
    </g>
    <g clip-path="url(#pe7c464be27)">
     <use xlink:href="#C0_0_3478d3665a" x="283.353165" y="67.835652" style="fill: #31688e; fill-opacity: 0.7; stroke: #808080; stroke-opacity: 0.7; stroke-width: 1.4"/>
    </g>
    <g clip-path="url(#pe7c464be27)">
     <use xlink:href="#C0_0_3478d3665a" x="333.170878" y="143.841002" style="fill: #440154; fill-opacity: 0.7; stroke: #808080; stroke-opacity: 0.7; stroke-width: 1.4"/>
    </g>
    <g clip-path="url(#pe7c464be27)">
     <use xlink:href="#C0_0_3478d3665a" x="370.066383" y="172.382519" style="fill: #35b779; fill-opacity: 0.7; stroke: #808080; stroke-opacity: 0.7; stroke-width: 1.4"/>
    </g>
    <g clip-path="url(#pe7c464be27)">
     <use xlink:href="#C0_0_3478d3665a" x="297.332248" y="128.04878" style="fill: #31688e; fill-opacity: 0.7; stroke: #808080; stroke-opacity: 0.7; stroke-width: 1.4"/>
    </g>
    <g clip-path="url(#pe7c464be27)">
     <use xlink:href="#C0_0_3478d3665a" x="336.457853" y="70.453614" style="fill: #440154; fill-opacity: 0.7; stroke: #808080; stroke-opacity: 0.7; stroke-width: 1.4"/>
    </g>
    <g clip-path="url(#pe7c464be27)">
     <use xlink:href="#C0_0_3478d3665a" x="295.041969" y="132.848377" style="fill: #31688e; fill-opacity: 0.7; stroke: #808080; stroke-opacity: 0.7; stroke-width: 1.4"/>
    </g>
    <g clip-path="url(#pe7c464be27)">
     <use xlink:href="#C0_0_3478d3665a" x="333.907614" y="119.820899" style="fill: #440154; fill-opacity: 0.7; stroke: #808080; stroke-opacity: 0.7; stroke-width: 1.4"/>
    </g>
    <g clip-path="url(#pe7c464be27)">
     <use xlink:href="#C0_0_3478d3665a" x="365.242889" y="72.373453" style="fill: #440154; fill-opacity: 0.7; stroke: #808080; stroke-opacity: 0.7; stroke-width: 1.4"/>
    </g>
    <g clip-path="url(#pe7c464be27)">
     <use xlink:href="#C0_0_3478d3665a" x="325.469965" y="104.050794" style="fill: #440154; fill-opacity: 0.7; stroke: #808080; stroke-opacity: 0.7; stroke-width: 1.4"/>
    </g>
    <g clip-path="url(#pe7c464be27)">
     <use xlink:href="#C0_0_3478d3665a" x="311.248184" y="112.964332" style="fill: #440154; fill-opacity: 0.7; stroke: #808080; stroke-opacity: 0.7; stroke-width: 1.4"/>
    </g>
    <g clip-path="url(#pe7c464be27)">
     <use xlink:href="#C0_0_3478d3665a" x="355.720519" y="60.812144" style="fill: #440154; fill-opacity: 0.7; stroke: #808080; stroke-opacity: 0.7; stroke-width: 1.4"/>
    </g>
    <g clip-path="url(#pe7c464be27)">
     <use xlink:href="#C0_0_3478d3665a" x="392.372239" y="127.083254" style="fill: #440154; fill-opacity: 0.7; stroke: #808080; stroke-opacity: 0.7; stroke-width: 1.4"/>
    </g>
    <g clip-path="url(#pe7c464be27)">
     <use xlink:href="#C0_0_3478d3665a" x="326.822321" y="105.65066" style="fill: #440154; fill-opacity: 0.7; stroke: #808080; stroke-opacity: 0.7; stroke-width: 1.4"/>
    </g>
    <g clip-path="url(#pe7c464be27)">
     <use xlink:href="#C0_0_3478d3665a" x="275.678698" y="82.162522" style="fill: #31688e; fill-opacity: 0.7; stroke: #808080; stroke-opacity: 0.7; stroke-width: 1.4"/>
    </g>
    <g clip-path="url(#pe7c464be27)">
     <use xlink:href="#C0_0_3478d3665a" x="377.503952" y="190.190932" style="fill: #35b779; fill-opacity: 0.7; stroke: #808080; stroke-opacity: 0.7; stroke-width: 1.4"/>
    </g>
    <g clip-path="url(#pe7c464be27)">
     <use xlink:href="#C0_0_3478d3665a" x="145.848843" y="182.277994" style="fill: #fde725; fill-opacity: 0.7; stroke: #808080; stroke-opacity: 0.7; stroke-width: 1.4"/>
    </g>
    <g clip-path="url(#pe7c464be27)">
     <use xlink:href="#C0_0_3478d3665a" x="351.738739" y="175.172097" style="fill: #35b779; fill-opacity: 0.7; stroke: #808080; stroke-opacity: 0.7; stroke-width: 1.4"/>
    </g>
    <g clip-path="url(#pe7c464be27)">
     <use xlink:href="#C0_0_3478d3665a" x="276.937311" y="168.365395" style="fill: #fde725; fill-opacity: 0.7; stroke: #808080; stroke-opacity: 0.7; stroke-width: 1.4"/>
    </g>
    <g clip-path="url(#pe7c464be27)">
     <use xlink:href="#C0_0_3478d3665a" x="316.264394" y="99.251197" style="fill: #440154; fill-opacity: 0.7; stroke: #808080; stroke-opacity: 0.7; stroke-width: 1.4"/>
    </g>
    <g clip-path="url(#pe7c464be27)">
     <use xlink:href="#C0_0_3478d3665a" x="353.384344" y="129.968619" style="fill: #440154; fill-opacity: 0.7; stroke: #808080; stroke-opacity: 0.7; stroke-width: 1.4"/>
    </g>
    <g clip-path="url(#pe7c464be27)">
     <use xlink:href="#C0_0_3478d3665a" x="291.030579" y="90.02044" style="fill: #31688e; fill-opacity: 0.7; stroke: #808080; stroke-opacity: 0.7; stroke-width: 1.4"/>
    </g>
    <g clip-path="url(#pe7c464be27)">
     <use xlink:href="#C0_0_3478d3665a" x="261.654094" y="100.948006" style="fill: #31688e; fill-opacity: 0.7; stroke: #808080; stroke-opacity: 0.7; stroke-width: 1.4"/>
    </g>
    <g clip-path="url(#pe7c464be27)">
     <use xlink:href="#C0_0_3478d3665a" x="308.354217" y="17.107273" style="fill: #31688e; fill-opacity: 0.7; stroke: #808080; stroke-opacity: 0.7; stroke-width: 1.4"/>
    </g>
    <g clip-path="url(#pe7c464be27)">
     <use xlink:href="#C0_0_3478d3665a" x="363.976712" y="113.649988" style="fill: #440154; fill-opacity: 0.7; stroke: #808080; stroke-opacity: 0.7; stroke-width: 1.4"/>
    </g>
    <g clip-path="url(#pe7c464be27)">
     <use xlink:href="#C0_0_3478d3665a" x="274.08046" y="120.58274" style="fill: #31688e; fill-opacity: 0.7; stroke: #808080; stroke-opacity: 0.7; stroke-width: 1.4"/>
    </g>
    <g clip-path="url(#pe7c464be27)">
     <use xlink:href="#C0_0_3478d3665a" x="156.949579" y="200.042736" style="fill: #fde725; fill-opacity: 0.7; stroke: #808080; stroke-opacity: 0.7; stroke-width: 1.4"/>
    </g>
    <g clip-path="url(#pe7c464be27)">
     <use xlink:href="#C0_0_3478d3665a" x="372.752572" y="54.21659" style="fill: #440154; fill-opacity: 0.7; stroke: #808080; stroke-opacity: 0.7; stroke-width: 1.4"/>
    </g>
    <g clip-path="url(#pe7c464be27)">
     <use xlink:href="#C0_0_3478d3665a" x="300.011875" y="85.960005" style="fill: #31688e; fill-opacity: 0.7; stroke: #808080; stroke-opacity: 0.7; stroke-width: 1.4"/>
    </g>
    <g clip-path="url(#pe7c464be27)">
     <use xlink:href="#C0_0_3478d3665a" x="392.121767" y="118.449585" style="fill: #440154; fill-opacity: 0.7; stroke: #808080; stroke-opacity: 0.7; stroke-width: 1.4"/>
    </g>
    <g clip-path="url(#pe7c464be27)">
     <use xlink:href="#C0_0_3478d3665a" x="347.246864" y="187.859144" style="fill: #35b779; fill-opacity: 0.7; stroke: #808080; stroke-opacity: 0.7; stroke-width: 1.4"/>
    </g>
    <g clip-path="url(#pe7c464be27)">
     <use xlink:href="#C0_0_3478d3665a" x="138.489928" y="197.162978" style="fill: #fde725; fill-opacity: 0.7; stroke: #808080; stroke-opacity: 0.7; stroke-width: 1.4"/>
    </g>
    <g clip-path="url(#pe7c464be27)">
     <use xlink:href="#C0_0_3478d3665a" x="363.08235" y="173.911597" style="fill: #35b779; fill-opacity: 0.7; stroke: #808080; stroke-opacity: 0.7; stroke-width: 1.4"/>
    </g>
    <g clip-path="url(#pe7c464be27)">
     <use xlink:href="#C0_0_3478d3665a" x="351.879092" y="176.766106" style="fill: #35b779; fill-opacity: 0.7; stroke: #808080; stroke-opacity: 0.7; stroke-width: 1.4"/>
    </g>
    <g clip-path="url(#pe7c464be27)">
     <use xlink:href="#C0_0_3478d3665a" x="392.121767" y="130.263978" style="fill: #440154; fill-opacity: 0.7; stroke: #808080; stroke-opacity: 0.7; stroke-width: 1.4"/>
    </g>
    <g clip-path="url(#pe7c464be27)">
     <use xlink:href="#C0_0_3478d3665a" x="318.320217" y="164.045758" style="fill: #35b779; fill-opacity: 0.7; stroke: #808080; stroke-opacity: 0.7; stroke-width: 1.4"/>
    </g>
    <g clip-path="url(#pe7c464be27)">
     <use xlink:href="#C0_0_3478d3665a" x="350.263147" y="44.334877" style="fill: #440154; fill-opacity: 0.7; stroke: #808080; stroke-opacity: 0.7; stroke-width: 1.4"/>
    </g>
    <g clip-path="url(#pe7c464be27)">
     <use xlink:href="#C0_0_3478d3665a" x="312.970923" y="122.289263" style="fill: #440154; fill-opacity: 0.7; stroke: #808080; stroke-opacity: 0.7; stroke-width: 1.4"/>
    </g>
    <g clip-path="url(#pe7c464be27)">
     <use xlink:href="#C0_0_3478d3665a" x="396.885427" y="195.192691" style="fill: #35b779; fill-opacity: 0.7; stroke: #808080; stroke-opacity: 0.7; stroke-width: 1.4"/>
    </g>
    <g clip-path="url(#pe7c464be27)">
     <use xlink:href="#C0_0_3478d3665a" x="170.794317" y="211.053577" style="fill: #fde725; fill-opacity: 0.7; stroke: #808080; stroke-opacity: 0.7; stroke-width: 1.4"/>
    </g>
    <g clip-path="url(#pe7c464be27)">
     <use xlink:href="#C0_0_3478d3665a" x="266.469338" y="86.909376" style="fill: #31688e; fill-opacity: 0.7; stroke: #808080; stroke-opacity: 0.7; stroke-width: 1.4"/>
    </g>
    <g clip-path="url(#pe7c464be27)">
     <use xlink:href="#C0_0_3478d3665a" x="331.313022" y="129.968619" style="fill: #440154; fill-opacity: 0.7; stroke: #808080; stroke-opacity: 0.7; stroke-width: 1.4"/>
    </g>
    <g clip-path="url(#pe7c464be27)">
     <use xlink:href="#C0_0_3478d3665a" x="368.576294" y="117.725118" style="fill: #440154; fill-opacity: 0.7; stroke: #808080; stroke-opacity: 0.7; stroke-width: 1.4"/>
    </g>
    <g clip-path="url(#pe7c464be27)">
     <use xlink:href="#C0_0_3478d3665a" x="254.074168" y="92.449695" style="fill: #31688e; fill-opacity: 0.7; stroke: #808080; stroke-opacity: 0.7; stroke-width: 1.4"/>
    </g>
    <g clip-path="url(#pe7c464be27)">
     <use xlink:href="#C0_0_3478d3665a" x="341.54609" y="140.047773" style="fill: #440154; fill-opacity: 0.7; stroke: #808080; stroke-opacity: 0.7; stroke-width: 1.4"/>
    </g>
    <g clip-path="url(#pe7c464be27)">
     <use xlink:href="#C0_0_3478d3665a" x="332.531915" y="116.529747" style="fill: #440154; fill-opacity: 0.7; stroke: #808080; stroke-opacity: 0.7; stroke-width: 1.4"/>
    </g>
    <g clip-path="url(#pe7c464be27)">
     <use xlink:href="#C0_0_3478d3665a" x="240.018009" y="145.327329" style="fill: #31688e; fill-opacity: 0.7; stroke: #808080; stroke-opacity: 0.7; stroke-width: 1.4"/>
    </g>
    <g clip-path="url(#pe7c464be27)">
     <use xlink:href="#C0_0_3478d3665a" x="272.322398" y="211.561769" style="fill: #fde725; fill-opacity: 0.7; stroke: #808080; stroke-opacity: 0.7; stroke-width: 1.4"/>
    </g>
    <g clip-path="url(#pe7c464be27)">
     <use xlink:href="#C0_0_3478d3665a" x="346.161003" y="172.205073" style="fill: #35b779; fill-opacity: 0.7; stroke: #808080; stroke-opacity: 0.7; stroke-width: 1.4"/>
    </g>
    <g clip-path="url(#pe7c464be27)">
     <use xlink:href="#C0_0_3478d3665a" x="294.668292" y="165.074243" style="fill: #fde725; fill-opacity: 0.7; stroke: #808080; stroke-opacity: 0.7; stroke-width: 1.4"/>
    </g>
    <g clip-path="url(#pe7c464be27)">
     <use xlink:href="#C0_0_3478d3665a" x="365.64619" y="88.280689" style="fill: #440154; fill-opacity: 0.7; stroke: #808080; stroke-opacity: 0.7; stroke-width: 1.4"/>
    </g>
    <g clip-path="url(#pe7c464be27)">
     <use xlink:href="#C0_0_3478d3665a" x="329.752424" y="152.732422" style="fill: #440154; fill-opacity: 0.7; stroke: #808080; stroke-opacity: 0.7; stroke-width: 1.4"/>
    </g>
    <g clip-path="url(#pe7c464be27)">
     <use xlink:href="#C0_0_3478d3665a" x="147.719753" y="189.243643" style="fill: #fde725; fill-opacity: 0.7; stroke: #808080; stroke-opacity: 0.7; stroke-width: 1.4"/>
    </g>
    <g clip-path="url(#pe7c464be27)">
     <use xlink:href="#C0_0_3478d3665a" x="383.080305" y="215.252727" style="fill: #35b779; fill-opacity: 0.7; stroke: #808080; stroke-opacity: 0.7; stroke-width: 1.4"/>
    </g>
    <g clip-path="url(#pe7c464be27)">
     <use xlink:href="#C0_0_3478d3665a" x="328.376705" y="80.052809" style="fill: #440154; fill-opacity: 0.7; stroke: #808080; stroke-opacity: 0.7; stroke-width: 1.4"/>
    </g>
    <g clip-path="url(#pe7c464be27)">
     <use xlink:href="#C0_0_3478d3665a" x="262.545786" y="88.27905" style="fill: #31688e; fill-opacity: 0.7; stroke: #808080; stroke-opacity: 0.7; stroke-width: 1.4"/>
    </g>
    <g clip-path="url(#pe7c464be27)">
     <use xlink:href="#C0_0_3478d3665a" x="216.943445" y="198.733755" style="fill: #fde725; fill-opacity: 0.7; stroke: #808080; stroke-opacity: 0.7; stroke-width: 1.4"/>
    </g>
    <g clip-path="url(#pe7c464be27)">
     <use xlink:href="#C0_0_3478d3665a" x="378.465392" y="86.245837" style="fill: #440154; fill-opacity: 0.7; stroke: #808080; stroke-opacity: 0.7; stroke-width: 1.4"/>
    </g>
    <g clip-path="url(#pe7c464be27)">
     <use xlink:href="#C0_0_3478d3665a" x="148.607237" y="195.243139" style="fill: #fde725; fill-opacity: 0.7; stroke: #808080; stroke-opacity: 0.7; stroke-width: 1.4"/>
    </g>
    <g clip-path="url(#pe7c464be27)">
     <use xlink:href="#C0_0_3478d3665a" x="368.193875" y="64.126308" style="fill: #440154; fill-opacity: 0.7; stroke: #808080; stroke-opacity: 0.7; stroke-width: 1.4"/>
    </g>
    <g clip-path="url(#pe7c464be27)">
     <use xlink:href="#C0_0_3478d3665a" x="324.624743" y="148.207088" style="fill: #440154; fill-opacity: 0.7; stroke: #808080; stroke-opacity: 0.7; stroke-width: 1.4"/>
    </g>
    <g clip-path="url(#pe7c464be27)">
     <use xlink:href="#C0_0_3478d3665a" x="182.813882" y="111.123648" style="fill: #31688e; fill-opacity: 0.7; stroke: #808080; stroke-opacity: 0.7; stroke-width: 1.4"/>
    </g>
    <g clip-path="url(#pe7c464be27)">
     <use xlink:href="#C0_0_3478d3665a" x="270.85216" y="138.847873" style="fill: #31688e; fill-opacity: 0.7; stroke: #808080; stroke-opacity: 0.7; stroke-width: 1.4"/>
    </g>
    <g clip-path="url(#pe7c464be27)">
     <use xlink:href="#C0_0_3478d3665a" x="377.250941" y="142.447571" style="fill: #440154; fill-opacity: 0.7; stroke: #808080; stroke-opacity: 0.7; stroke-width: 1.4"/>
    </g>
    <g clip-path="url(#pe7c464be27)">
     <use xlink:href="#C0_0_3478d3665a" x="372.393138" y="93.188548" style="fill: #440154; fill-opacity: 0.7; stroke: #808080; stroke-opacity: 0.7; stroke-width: 1.4"/>
    </g>
    <g clip-path="url(#pe7c464be27)">
     <use xlink:href="#C0_0_3478d3665a" x="289.663283" y="185.643945" style="fill: #fde725; fill-opacity: 0.7; stroke: #808080; stroke-opacity: 0.7; stroke-width: 1.4"/>
    </g>
    <g clip-path="url(#pe7c464be27)">
     <use xlink:href="#C0_0_3478d3665a" x="360.005741" y="96.051466" style="fill: #440154; fill-opacity: 0.7; stroke: #808080; stroke-opacity: 0.7; stroke-width: 1.4"/>
    </g>
    <g clip-path="url(#pe7c464be27)">
     <use xlink:href="#C0_0_3478d3665a" x="347.599417" y="153.458412" style="fill: #440154; fill-opacity: 0.7; stroke: #808080; stroke-opacity: 0.7; stroke-width: 1.4"/>
    </g>
    <g clip-path="url(#pe7c464be27)">
     <use xlink:href="#C0_0_3478d3665a" x="184.639056" y="213.374951" style="fill: #fde725; fill-opacity: 0.7; stroke: #808080; stroke-opacity: 0.7; stroke-width: 1.4"/>
    </g>
    <g clip-path="url(#pe7c464be27)">
     <use xlink:href="#C0_0_3478d3665a" x="343.853546" y="76.213131" style="fill: #440154; fill-opacity: 0.7; stroke: #808080; stroke-opacity: 0.7; stroke-width: 1.4"/>
    </g>
    <g clip-path="url(#pe7c464be27)">
     <use xlink:href="#C0_0_3478d3665a" x="391.284594" y="89.652003" style="fill: #440154; fill-opacity: 0.7; stroke: #808080; stroke-opacity: 0.7; stroke-width: 1.4"/>
    </g>
    <g clip-path="url(#pe7c464be27)">
     <use xlink:href="#C0_0_3478d3665a" x="301.302084" y="82.378272" style="fill: #31688e; fill-opacity: 0.7; stroke: #808080; stroke-opacity: 0.7; stroke-width: 1.4"/>
    </g>
   </g>
   <g id="PathCollection_2">
    <path d="M 341.01651 179.541757 
L 336.544374 188.486029 
L 345.488646 188.486029 
z
" clip-path="url(#pe7c464be27)" style="fill: #fde725; stroke: #000000; stroke-width: 1.8"/>
    <path d="M 298.440841 158.133743 
L 293.968705 167.078015 
L 302.912977 167.078015 
z
" clip-path="url(#pe7c464be27)" style="fill: #31688e; stroke: #000000; stroke-width: 1.8"/>
    <path d="M 337.716694 152.374226 
L 333.244558 161.318498 
L 342.18883 161.318498 
z
" clip-path="url(#pe7c464be27)" style="fill: #35b779; stroke: #000000; stroke-width: 1.8"/>
    <path d="M 295.944494 139.853538 
L 291.472358 148.79781 
L 300.41663 148.79781 
z
" clip-path="url(#pe7c464be27)" style="fill: #440154; stroke: #000000; stroke-width: 1.8"/>
    <path d="M 335.053924 159.285646 
L 330.581788 168.229918 
L 339.52606 168.229918 
z
" clip-path="url(#pe7c464be27)" style="fill: #440154; stroke: #000000; stroke-width: 1.8"/>
    <path d="M 280.094883 70.781076 
L 275.622747 79.725347 
L 284.567019 79.725347 
z
" clip-path="url(#pe7c464be27)" style="fill: #440154; stroke: #000000; stroke-width: 1.8"/>
    <path d="M 339.63259 141.575133 
L 335.160454 150.519405 
L 344.104726 150.519405 
z
" clip-path="url(#pe7c464be27)" style="fill: #35b779; stroke: #000000; stroke-width: 1.8"/>
   </g>
   <g id="matplotlib.axis_1">
    <g id="xtick_1">
     <g id="line2d_1">
      <defs>
       <path id="m2e33754230" d="M 0 0 
L 0 3.5 
" style="stroke: #000000; stroke-width: 0.8"/>
      </defs>
      <g>
       <use xlink:href="#m2e33754230" x="124.64519" y="225.16" style="stroke: #000000; stroke-width: 0.8"/>
      </g>
     </g>
     <g id="text_1">
      <!-- 0.4 -->
      <g transform="translate(110.332377 245.837187) scale(0.18 -0.18)">
       <defs>
        <path id="DejaVuSans-30" d="M 2034 4250 
Q 1547 4250 1301 3770 
Q 1056 3291 1056 2328 
Q 1056 1369 1301 889 
Q 1547 409 2034 409 
Q 2525 409 2770 889 
Q 3016 1369 3016 2328 
Q 3016 3291 2770 3770 
Q 2525 4250 2034 4250 
z
M 2034 4750 
Q 2819 4750 3233 4129 
Q 3647 3509 3647 2328 
Q 3647 1150 3233 529 
Q 2819 -91 2034 -91 
Q 1250 -91 836 529 
Q 422 1150 422 2328 
Q 422 3509 836 4129 
Q 1250 4750 2034 4750 
z
" transform="scale(0.015625)"/>
        <path id="DejaVuSans-2e" d="M 684 794 
L 1344 794 
L 1344 0 
L 684 0 
L 684 794 
z
" transform="scale(0.015625)"/>
        <path id="DejaVuSans-34" d="M 2419 4116 
L 825 1625 
L 2419 1625 
L 2419 4116 
z
M 2253 4666 
L 3047 4666 
L 3047 1625 
L 3713 1625 
L 3713 1100 
L 3047 1100 
L 3047 0 
L 2419 0 
L 2419 1100 
L 313 1100 
L 313 1709 
L 2253 4666 
z
" transform="scale(0.015625)"/>
       </defs>
       <use xlink:href="#DejaVuSans-30"/>
       <use xlink:href="#DejaVuSans-2e" transform="translate(63.623047 0)"/>
       <use xlink:href="#DejaVuSans-34" transform="translate(95.410156 0)"/>
      </g>
     </g>
    </g>
    <g id="xtick_2">
     <g id="line2d_2">
      <g>
       <use xlink:href="#m2e33754230" x="216.943445" y="225.16" style="stroke: #000000; stroke-width: 0.8"/>
      </g>
     </g>
     <g id="text_2">
      <!-- 0.6 -->
      <g transform="translate(202.630633 245.837187) scale(0.18 -0.18)">
       <defs>
        <path id="DejaVuSans-36" d="M 2113 2584 
Q 1688 2584 1439 2293 
Q 1191 2003 1191 1497 
Q 1191 994 1439 701 
Q 1688 409 2113 409 
Q 2538 409 2786 701 
Q 3034 994 3034 1497 
Q 3034 2003 2786 2293 
Q 2538 2584 2113 2584 
z
M 3366 4563 
L 3366 3988 
Q 3128 4100 2886 4159 
Q 2644 4219 2406 4219 
Q 1781 4219 1451 3797 
Q 1122 3375 1075 2522 
Q 1259 2794 1537 2939 
Q 1816 3084 2150 3084 
Q 2853 3084 3261 2657 
Q 3669 2231 3669 1497 
Q 3669 778 3244 343 
Q 2819 -91 2113 -91 
Q 1303 -91 875 529 
Q 447 1150 447 2328 
Q 447 3434 972 4092 
Q 1497 4750 2381 4750 
Q 2619 4750 2861 4703 
Q 3103 4656 3366 4563 
z
" transform="scale(0.015625)"/>
       </defs>
       <use xlink:href="#DejaVuSans-30"/>
       <use xlink:href="#DejaVuSans-2e" transform="translate(63.623047 0)"/>
       <use xlink:href="#DejaVuSans-36" transform="translate(95.410156 0)"/>
      </g>
     </g>
    </g>
    <g id="xtick_3">
     <g id="line2d_3">
      <g>
       <use xlink:href="#m2e33754230" x="309.241701" y="225.16" style="stroke: #000000; stroke-width: 0.8"/>
      </g>
     </g>
     <g id="text_3">
      <!-- 0.8 -->
      <g transform="translate(294.928888 245.837187) scale(0.18 -0.18)">
       <defs>
        <path id="DejaVuSans-38" d="M 2034 2216 
Q 1584 2216 1326 1975 
Q 1069 1734 1069 1313 
Q 1069 891 1326 650 
Q 1584 409 2034 409 
Q 2484 409 2743 651 
Q 3003 894 3003 1313 
Q 3003 1734 2745 1975 
Q 2488 2216 2034 2216 
z
M 1403 2484 
Q 997 2584 770 2862 
Q 544 3141 544 3541 
Q 544 4100 942 4425 
Q 1341 4750 2034 4750 
Q 2731 4750 3128 4425 
Q 3525 4100 3525 3541 
Q 3525 3141 3298 2862 
Q 3072 2584 2669 2484 
Q 3125 2378 3379 2068 
Q 3634 1759 3634 1313 
Q 3634 634 3220 271 
Q 2806 -91 2034 -91 
Q 1263 -91 848 271 
Q 434 634 434 1313 
Q 434 1759 690 2068 
Q 947 2378 1403 2484 
z
M 1172 3481 
Q 1172 3119 1398 2916 
Q 1625 2713 2034 2713 
Q 2441 2713 2670 2916 
Q 2900 3119 2900 3481 
Q 2900 3844 2670 4047 
Q 2441 4250 2034 4250 
Q 1625 4250 1398 4047 
Q 1172 3844 1172 3481 
z
" transform="scale(0.015625)"/>
       </defs>
       <use xlink:href="#DejaVuSans-30"/>
       <use xlink:href="#DejaVuSans-2e" transform="translate(63.623047 0)"/>
       <use xlink:href="#DejaVuSans-38" transform="translate(95.410156 0)"/>
      </g>
     </g>
    </g>
    <g id="xtick_4">
     <g id="line2d_4">
      <g>
       <use xlink:href="#m2e33754230" x="401.539956" y="225.16" style="stroke: #000000; stroke-width: 0.8"/>
      </g>
     </g>
     <g id="text_4">
      <!-- 1.0 -->
      <g transform="translate(387.227143 245.837187) scale(0.18 -0.18)">
       <defs>
        <path id="DejaVuSans-31" d="M 794 531 
L 1825 531 
L 1825 4091 
L 703 3866 
L 703 4441 
L 1819 4666 
L 2450 4666 
L 2450 531 
L 3481 531 
L 3481 0 
L 794 0 
L 794 531 
z
" transform="scale(0.015625)"/>
       </defs>
       <use xlink:href="#DejaVuSans-31"/>
       <use xlink:href="#DejaVuSans-2e" transform="translate(63.623047 0)"/>
       <use xlink:href="#DejaVuSans-30" transform="translate(95.410156 0)"/>
      </g>
     </g>
    </g>
    <g id="text_5">
     <!-- FFR -->
     <g transform="translate(212.778304 268.7775) scale(0.2 -0.2)">
      <defs>
       <path id="DejaVuSans-46" d="M 628 4666 
L 3309 4666 
L 3309 4134 
L 1259 4134 
L 1259 2759 
L 3109 2759 
L 3109 2228 
L 1259 2228 
L 1259 0 
L 628 0 
L 628 4666 
z
" transform="scale(0.015625)"/>
       <path id="DejaVuSans-52" d="M 2841 2188 
Q 3044 2119 3236 1894 
Q 3428 1669 3622 1275 
L 4263 0 
L 3584 0 
L 2988 1197 
Q 2756 1666 2539 1819 
Q 2322 1972 1947 1972 
L 1259 1972 
L 1259 0 
L 628 0 
L 628 4666 
L 2053 4666 
Q 2853 4666 3247 4331 
Q 3641 3997 3641 3322 
Q 3641 2881 3436 2590 
Q 3231 2300 2841 2188 
z
M 1259 4147 
L 1259 2491 
L 2053 2491 
Q 2509 2491 2742 2702 
Q 2975 2913 2975 3322 
Q 2975 3731 2742 3939 
Q 2509 4147 2053 4147 
L 1259 4147 
z
" transform="scale(0.015625)"/>
      </defs>
      <use xlink:href="#DejaVuSans-46"/>
      <use xlink:href="#DejaVuSans-46" transform="translate(57.519531 0)"/>
      <use xlink:href="#DejaVuSans-52" transform="translate(115.039062 0)"/>
     </g>
    </g>
   </g>
   <g id="matplotlib.axis_2">
    <g id="ytick_1">
     <g id="line2d_5">
      <defs>
       <path id="mc4afe6dbfa" d="M 0 0 
L -3.5 0 
" style="stroke: #000000; stroke-width: 0.8"/>
      </defs>
      <g>
       <use xlink:href="#mc4afe6dbfa" x="49.00875" y="214.441528" style="stroke: #000000; stroke-width: 0.8"/>
      </g>
     </g>
     <g id="text_6">
      <!-- 1 -->
      <g transform="translate(30.55625 221.280122) scale(0.18 -0.18)">
       <use xlink:href="#DejaVuSans-31"/>
      </g>
     </g>
    </g>
    <g id="ytick_2">
     <g id="line2d_6">
      <g>
       <use xlink:href="#mc4afe6dbfa" x="49.00875" y="156.846362" style="stroke: #000000; stroke-width: 0.8"/>
      </g>
     </g>
     <g id="text_7">
      <!-- 2 -->
      <g transform="translate(30.55625 163.684956) scale(0.18 -0.18)">
       <defs>
        <path id="DejaVuSans-32" d="M 1228 531 
L 3431 531 
L 3431 0 
L 469 0 
L 469 531 
Q 828 903 1448 1529 
Q 2069 2156 2228 2338 
Q 2531 2678 2651 2914 
Q 2772 3150 2772 3378 
Q 2772 3750 2511 3984 
Q 2250 4219 1831 4219 
Q 1534 4219 1204 4116 
Q 875 4013 500 3803 
L 500 4441 
Q 881 4594 1212 4672 
Q 1544 4750 1819 4750 
Q 2544 4750 2975 4387 
Q 3406 4025 3406 3419 
Q 3406 3131 3298 2873 
Q 3191 2616 2906 2266 
Q 2828 2175 2409 1742 
Q 1991 1309 1228 531 
z
" transform="scale(0.015625)"/>
       </defs>
       <use xlink:href="#DejaVuSans-32"/>
      </g>
     </g>
    </g>
    <g id="ytick_3">
     <g id="line2d_7">
      <g>
       <use xlink:href="#mc4afe6dbfa" x="49.00875" y="99.251197" style="stroke: #000000; stroke-width: 0.8"/>
      </g>
     </g>
     <g id="text_8">
      <!-- 3 -->
      <g transform="translate(30.55625 106.089791) scale(0.18 -0.18)">
       <defs>
        <path id="DejaVuSans-33" d="M 2597 2516 
Q 3050 2419 3304 2112 
Q 3559 1806 3559 1356 
Q 3559 666 3084 287 
Q 2609 -91 1734 -91 
Q 1441 -91 1130 -33 
Q 819 25 488 141 
L 488 750 
Q 750 597 1062 519 
Q 1375 441 1716 441 
Q 2309 441 2620 675 
Q 2931 909 2931 1356 
Q 2931 1769 2642 2001 
Q 2353 2234 1838 2234 
L 1294 2234 
L 1294 2753 
L 1863 2753 
Q 2328 2753 2575 2939 
Q 2822 3125 2822 3475 
Q 2822 3834 2567 4026 
Q 2313 4219 1838 4219 
Q 1578 4219 1281 4162 
Q 984 4106 628 3988 
L 628 4550 
Q 988 4650 1302 4700 
Q 1616 4750 1894 4750 
Q 2613 4750 3031 4423 
Q 3450 4097 3450 3541 
Q 3450 3153 3228 2886 
Q 3006 2619 2597 2516 
z
" transform="scale(0.015625)"/>
       </defs>
       <use xlink:href="#DejaVuSans-33"/>
      </g>
     </g>
    </g>
    <g id="ytick_4">
     <g id="line2d_8">
      <g>
       <use xlink:href="#mc4afe6dbfa" x="49.00875" y="41.656032" style="stroke: #000000; stroke-width: 0.8"/>
      </g>
     </g>
     <g id="text_9">
      <!-- 4 -->
      <g transform="translate(30.55625 48.494625) scale(0.18 -0.18)">
       <use xlink:href="#DejaVuSans-34"/>
      </g>
     </g>
    </g>
    <g id="text_10">
     <!-- CFR -->
     <g transform="translate(22.396875 135.862812) rotate(-90) scale(0.2 -0.2)">
      <defs>
       <path id="DejaVuSans-43" d="M 4122 4306 
L 4122 3641 
Q 3803 3938 3442 4084 
Q 3081 4231 2675 4231 
Q 1875 4231 1450 3742 
Q 1025 3253 1025 2328 
Q 1025 1406 1450 917 
Q 1875 428 2675 428 
Q 3081 428 3442 575 
Q 3803 722 4122 1019 
L 4122 359 
Q 3791 134 3420 21 
Q 3050 -91 2638 -91 
Q 1578 -91 968 557 
Q 359 1206 359 2328 
Q 359 3453 968 4101 
Q 1578 4750 2638 4750 
Q 3056 4750 3426 4639 
Q 3797 4528 4122 4306 
z
" transform="scale(0.015625)"/>
      </defs>
      <use xlink:href="#DejaVuSans-43"/>
      <use xlink:href="#DejaVuSans-46" transform="translate(69.824219 0)"/>
      <use xlink:href="#DejaVuSans-52" transform="translate(127.34375 0)"/>
     </g>
    </g>
   </g>
   <g id="line2d_9">
    <path d="M 49.00875 156.846362 
L 413.450983 156.846362 
" clip-path="url(#pe7c464be27)" style="fill: none; stroke-dasharray: 11.1,4.8; stroke-dashoffset: 0; stroke: #808080; stroke-width: 3"/>
   </g>
   <g id="line2d_10">
    <path d="M 309.241701 225.16 
L 309.241701 7.2 
" clip-path="url(#pe7c464be27)" style="fill: none; stroke-dasharray: 11.1,4.8; stroke-dashoffset: 0; stroke: #808080; stroke-width: 3"/>
   </g>
   <g id="patch_3">
    <path d="M 49.00875 225.16 
L 49.00875 7.2 
" style="fill: none; stroke: #000000; stroke-width: 0.8; stroke-linejoin: miter; stroke-linecap: square"/>
   </g>
   <g id="patch_4">
    <path d="M 413.450983 225.16 
L 413.450983 7.2 
" style="fill: none; stroke: #000000; stroke-width: 0.8; stroke-linejoin: miter; stroke-linecap: square"/>
   </g>
   <g id="patch_5">
    <path d="M 49.00875 225.16 
L 413.450983 225.16 
" style="fill: none; stroke: #000000; stroke-width: 0.8; stroke-linejoin: miter; stroke-linecap: square"/>
   </g>
   <g id="patch_6">
    <path d="M 49.00875 7.2 
L 413.450983 7.2 
" style="fill: none; stroke: #000000; stroke-width: 0.8; stroke-linejoin: miter; stroke-linecap: square"/>
   </g>
   <g id="legend_1">
    <g id="patch_7">
     <path d="M 58.80875 59.49875 
L 248.659688 59.49875 
Q 251.459688 59.49875 251.459688 56.69875 
L 251.459688 17 
Q 251.459688 14.2 248.659688 14.2 
L 58.80875 14.2 
Q 56.00875 14.2 56.00875 17 
L 56.00875 56.69875 
Q 56.00875 59.49875 58.80875 59.49875 
z
" style="fill: #ffffff; opacity: 0.8; stroke: #cccccc; stroke-linejoin: miter"/>
    </g>
    <g id="line2d_11">
     <defs>
      <path id="m9f1387f54c" d="M 0 4 
C 1.060812 4 2.078319 3.578535 2.828427 2.828427 
C 3.578535 2.078319 4 1.060812 4 0 
C 4 -1.060812 3.578535 -2.078319 2.828427 -2.828427 
C 2.078319 -3.578535 1.060812 -4 0 -4 
C -1.060812 -4 -2.078319 -3.578535 -2.828427 -2.828427 
C -3.578535 -2.078319 -4 -1.060812 -4 0 
C -4 1.060812 -3.578535 2.078319 -2.828427 2.828427 
C -2.078319 3.578535 -1.060812 4 0 4 
z
" style="stroke: #808080; stroke-opacity: 0.7"/>
     </defs>
     <g>
      <use xlink:href="#m9f1387f54c" x="75.60875" y="25.537813" style="fill: #d3d3d3; fill-opacity: 0.7; stroke: #808080; stroke-opacity: 0.7"/>
     </g>
    </g>
    <g id="text_11">
     <!-- Correctly predicted -->
     <g transform="translate(100.80875 30.437813) scale(0.14 -0.14)">
      <defs>
       <path id="DejaVuSans-6f" d="M 1959 3097 
Q 1497 3097 1228 2736 
Q 959 2375 959 1747 
Q 959 1119 1226 758 
Q 1494 397 1959 397 
Q 2419 397 2687 759 
Q 2956 1122 2956 1747 
Q 2956 2369 2687 2733 
Q 2419 3097 1959 3097 
z
M 1959 3584 
Q 2709 3584 3137 3096 
Q 3566 2609 3566 1747 
Q 3566 888 3137 398 
Q 2709 -91 1959 -91 
Q 1206 -91 779 398 
Q 353 888 353 1747 
Q 353 2609 779 3096 
Q 1206 3584 1959 3584 
z
" transform="scale(0.015625)"/>
       <path id="DejaVuSans-72" d="M 2631 2963 
Q 2534 3019 2420 3045 
Q 2306 3072 2169 3072 
Q 1681 3072 1420 2755 
Q 1159 2438 1159 1844 
L 1159 0 
L 581 0 
L 581 3500 
L 1159 3500 
L 1159 2956 
Q 1341 3275 1631 3429 
Q 1922 3584 2338 3584 
Q 2397 3584 2469 3576 
Q 2541 3569 2628 3553 
L 2631 2963 
z
" transform="scale(0.015625)"/>
       <path id="DejaVuSans-65" d="M 3597 1894 
L 3597 1613 
L 953 1613 
Q 991 1019 1311 708 
Q 1631 397 2203 397 
Q 2534 397 2845 478 
Q 3156 559 3463 722 
L 3463 178 
Q 3153 47 2828 -22 
Q 2503 -91 2169 -91 
Q 1331 -91 842 396 
Q 353 884 353 1716 
Q 353 2575 817 3079 
Q 1281 3584 2069 3584 
Q 2775 3584 3186 3129 
Q 3597 2675 3597 1894 
z
M 3022 2063 
Q 3016 2534 2758 2815 
Q 2500 3097 2075 3097 
Q 1594 3097 1305 2825 
Q 1016 2553 972 2059 
L 3022 2063 
z
" transform="scale(0.015625)"/>
       <path id="DejaVuSans-63" d="M 3122 3366 
L 3122 2828 
Q 2878 2963 2633 3030 
Q 2388 3097 2138 3097 
Q 1578 3097 1268 2742 
Q 959 2388 959 1747 
Q 959 1106 1268 751 
Q 1578 397 2138 397 
Q 2388 397 2633 464 
Q 2878 531 3122 666 
L 3122 134 
Q 2881 22 2623 -34 
Q 2366 -91 2075 -91 
Q 1284 -91 818 406 
Q 353 903 353 1747 
Q 353 2603 823 3093 
Q 1294 3584 2113 3584 
Q 2378 3584 2631 3529 
Q 2884 3475 3122 3366 
z
" transform="scale(0.015625)"/>
       <path id="DejaVuSans-74" d="M 1172 4494 
L 1172 3500 
L 2356 3500 
L 2356 3053 
L 1172 3053 
L 1172 1153 
Q 1172 725 1289 603 
Q 1406 481 1766 481 
L 2356 481 
L 2356 0 
L 1766 0 
Q 1100 0 847 248 
Q 594 497 594 1153 
L 594 3053 
L 172 3053 
L 172 3500 
L 594 3500 
L 594 4494 
L 1172 4494 
z
" transform="scale(0.015625)"/>
       <path id="DejaVuSans-6c" d="M 603 4863 
L 1178 4863 
L 1178 0 
L 603 0 
L 603 4863 
z
" transform="scale(0.015625)"/>
       <path id="DejaVuSans-79" d="M 2059 -325 
Q 1816 -950 1584 -1140 
Q 1353 -1331 966 -1331 
L 506 -1331 
L 506 -850 
L 844 -850 
Q 1081 -850 1212 -737 
Q 1344 -625 1503 -206 
L 1606 56 
L 191 3500 
L 800 3500 
L 1894 763 
L 2988 3500 
L 3597 3500 
L 2059 -325 
z
" transform="scale(0.015625)"/>
       <path id="DejaVuSans-20" transform="scale(0.015625)"/>
       <path id="DejaVuSans-70" d="M 1159 525 
L 1159 -1331 
L 581 -1331 
L 581 3500 
L 1159 3500 
L 1159 2969 
Q 1341 3281 1617 3432 
Q 1894 3584 2278 3584 
Q 2916 3584 3314 3078 
Q 3713 2572 3713 1747 
Q 3713 922 3314 415 
Q 2916 -91 2278 -91 
Q 1894 -91 1617 61 
Q 1341 213 1159 525 
z
M 3116 1747 
Q 3116 2381 2855 2742 
Q 2594 3103 2138 3103 
Q 1681 3103 1420 2742 
Q 1159 2381 1159 1747 
Q 1159 1113 1420 752 
Q 1681 391 2138 391 
Q 2594 391 2855 752 
Q 3116 1113 3116 1747 
z
" transform="scale(0.015625)"/>
       <path id="DejaVuSans-64" d="M 2906 2969 
L 2906 4863 
L 3481 4863 
L 3481 0 
L 2906 0 
L 2906 525 
Q 2725 213 2448 61 
Q 2172 -91 1784 -91 
Q 1150 -91 751 415 
Q 353 922 353 1747 
Q 353 2572 751 3078 
Q 1150 3584 1784 3584 
Q 2172 3584 2448 3432 
Q 2725 3281 2906 2969 
z
M 947 1747 
Q 947 1113 1208 752 
Q 1469 391 1925 391 
Q 2381 391 2643 752 
Q 2906 1113 2906 1747 
Q 2906 2381 2643 2742 
Q 2381 3103 1925 3103 
Q 1469 3103 1208 2742 
Q 947 2381 947 1747 
z
" transform="scale(0.015625)"/>
       <path id="DejaVuSans-69" d="M 603 3500 
L 1178 3500 
L 1178 0 
L 603 0 
L 603 3500 
z
M 603 4863 
L 1178 4863 
L 1178 4134 
L 603 4134 
L 603 4863 
z
" transform="scale(0.015625)"/>
      </defs>
      <use xlink:href="#DejaVuSans-43"/>
      <use xlink:href="#DejaVuSans-6f" transform="translate(69.824219 0)"/>
      <use xlink:href="#DejaVuSans-72" transform="translate(131.005859 0)"/>
      <use xlink:href="#DejaVuSans-72" transform="translate(170.369141 0)"/>
      <use xlink:href="#DejaVuSans-65" transform="translate(209.232422 0)"/>
      <use xlink:href="#DejaVuSans-63" transform="translate(270.755859 0)"/>
      <use xlink:href="#DejaVuSans-74" transform="translate(325.736328 0)"/>
      <use xlink:href="#DejaVuSans-6c" transform="translate(364.945312 0)"/>
      <use xlink:href="#DejaVuSans-79" transform="translate(392.728516 0)"/>
      <use xlink:href="#DejaVuSans-20" transform="translate(451.908203 0)"/>
      <use xlink:href="#DejaVuSans-70" transform="translate(483.695312 0)"/>
      <use xlink:href="#DejaVuSans-72" transform="translate(547.171875 0)"/>
      <use xlink:href="#DejaVuSans-65" transform="translate(586.035156 0)"/>
      <use xlink:href="#DejaVuSans-64" transform="translate(647.558594 0)"/>
      <use xlink:href="#DejaVuSans-69" transform="translate(711.035156 0)"/>
      <use xlink:href="#DejaVuSans-63" transform="translate(738.818359 0)"/>
      <use xlink:href="#DejaVuSans-74" transform="translate(793.798828 0)"/>
      <use xlink:href="#DejaVuSans-65" transform="translate(833.007812 0)"/>
      <use xlink:href="#DejaVuSans-64" transform="translate(894.53125 0)"/>
     </g>
    </g>
    <g id="line2d_12">
     <defs>
      <path id="m2ab370387e" d="M 0 -4 
L -4 4 
L 4 4 
z
" style="stroke: #000000; stroke-width: 0.8; stroke-linejoin: miter"/>
     </defs>
     <g>
      <use xlink:href="#m2ab370387e" x="75.60875" y="46.087188" style="fill: #d3d3d3; stroke: #000000; stroke-width: 0.8; stroke-linejoin: miter"/>
     </g>
    </g>
    <g id="text_12">
     <!-- Incorrectly predicted -->
     <g transform="translate(100.80875 50.987188) scale(0.14 -0.14)">
      <defs>
       <path id="DejaVuSans-49" d="M 628 4666 
L 1259 4666 
L 1259 0 
L 628 0 
L 628 4666 
z
" transform="scale(0.015625)"/>
       <path id="DejaVuSans-6e" d="M 3513 2113 
L 3513 0 
L 2938 0 
L 2938 2094 
Q 2938 2591 2744 2837 
Q 2550 3084 2163 3084 
Q 1697 3084 1428 2787 
Q 1159 2491 1159 1978 
L 1159 0 
L 581 0 
L 581 3500 
L 1159 3500 
L 1159 2956 
Q 1366 3272 1645 3428 
Q 1925 3584 2291 3584 
Q 2894 3584 3203 3211 
Q 3513 2838 3513 2113 
z
" transform="scale(0.015625)"/>
      </defs>
      <use xlink:href="#DejaVuSans-49"/>
      <use xlink:href="#DejaVuSans-6e" transform="translate(29.492188 0)"/>
      <use xlink:href="#DejaVuSans-63" transform="translate(92.871094 0)"/>
      <use xlink:href="#DejaVuSans-6f" transform="translate(147.851562 0)"/>
      <use xlink:href="#DejaVuSans-72" transform="translate(209.033203 0)"/>
      <use xlink:href="#DejaVuSans-72" transform="translate(248.396484 0)"/>
      <use xlink:href="#DejaVuSans-65" transform="translate(287.259766 0)"/>
      <use xlink:href="#DejaVuSans-63" transform="translate(348.783203 0)"/>
      <use xlink:href="#DejaVuSans-74" transform="translate(403.763672 0)"/>
      <use xlink:href="#DejaVuSans-6c" transform="translate(442.972656 0)"/>
      <use xlink:href="#DejaVuSans-79" transform="translate(470.755859 0)"/>
      <use xlink:href="#DejaVuSans-20" transform="translate(529.935547 0)"/>
      <use xlink:href="#DejaVuSans-70" transform="translate(561.722656 0)"/>
      <use xlink:href="#DejaVuSans-72" transform="translate(625.199219 0)"/>
      <use xlink:href="#DejaVuSans-65" transform="translate(664.0625 0)"/>
      <use xlink:href="#DejaVuSans-64" transform="translate(725.585938 0)"/>
      <use xlink:href="#DejaVuSans-69" transform="translate(789.0625 0)"/>
      <use xlink:href="#DejaVuSans-63" transform="translate(816.845703 0)"/>
      <use xlink:href="#DejaVuSans-74" transform="translate(871.826172 0)"/>
      <use xlink:href="#DejaVuSans-65" transform="translate(911.035156 0)"/>
      <use xlink:href="#DejaVuSans-64" transform="translate(972.558594 0)"/>
     </g>
    </g>
   </g>
  </g>
 </g>
 <defs>
  <clipPath id="pe7c464be27">
   <rect x="49.00875" y="7.2" width="364.442233" height="217.96"/>
  </clipPath>
 </defs>
</svg>
